<svg xmlns="http://www.w3.org/2000/svg" xmlns:xlink="http://www.w3.org/1999/xlink" zoomAndPan="magnify" preserveAspectRatio="xMidYMid meet" version="1.0" viewBox="15.12 5.89 265.28 63.11"><defs><g/></defs><g fill="#ffffff" fill-opacity="1"><g transform="translate(13.745922, 68.999993)"><g><path d="M 42.34375 -19.015625 L 21.125 -19.015625 L 14.8125 0 L 1.375 0 L 24.140625 -63.109375 L 39.96875 -63.109375 L 62.28125 0 L 48.5625 0 Z M 31.828125 -52.3125 L 24.328125 -28.984375 L 39.140625 -28.984375 Z M 31.828125 -52.3125 "/></g></g></g><g fill="#ffffff" fill-opacity="1"><g transform="translate(75.560263, 68.999993)"><g><path d="M 37.953125 -62.734375 C 45.753906 -61.816406 52.03125 -58.828125 56.78125 -53.765625 C 61.539062 -48.710938 63.921875 -41.582031 63.921875 -32.375 C 63.921875 -23.101562 61.484375 -15.675781 56.609375 -10.09375 C 51.734375 -4.519531 45.453125 -1.273438 37.765625 -0.359375 C 35.628906 -0.117188 32.945312 0 29.71875 0 L 8.140625 0 L 8.140625 -63.109375 L 29.90625 -63.109375 C 33.132812 -63.109375 35.816406 -62.984375 37.953125 -62.734375 Z M 34.9375 -10.25 C 39.75 -10.851562 43.554688 -13.078125 46.359375 -16.921875 C 49.171875 -20.765625 50.578125 -25.851562 50.578125 -32.1875 C 50.578125 -38.289062 49.203125 -43.109375 46.453125 -46.640625 C 43.710938 -50.179688 39.960938 -52.253906 35.203125 -52.859375 C 33.316406 -53.097656 31.0625 -53.21875 28.4375 -53.21875 L 20.765625 -53.21875 L 20.765625 -9.96875 L 28.265625 -9.96875 C 31.367188 -9.96875 33.59375 -10.0625 34.9375 -10.25 Z M 34.9375 -10.25 "/></g></g></g><g fill="#ffffff" fill-opacity="1"><g transform="translate(142.40387, 68.999993)"><g><path d="M 42.34375 -19.015625 L 21.125 -19.015625 L 14.8125 0 L 1.375 0 L 24.140625 -63.109375 L 39.96875 -63.109375 L 62.28125 0 L 48.5625 0 Z M 31.828125 -52.3125 L 24.328125 -28.984375 L 39.140625 -28.984375 Z M 31.828125 -52.3125 "/></g></g></g><g fill="#ffffff" fill-opacity="1"><g transform="translate(204.218211, 68.999993)"><g><path d="M 76.1875 -63.109375 L 76.1875 0 L 63.5625 0 L 63.5625 -29.171875 C 63.5625 -39.171875 63.625 -46.363281 63.75 -50.75 C 62.039062 -43.4375 60.085938 -36.273438 57.890625 -29.265625 L 49.015625 0 L 35.296875 0 L 26.25 -29.359375 C 23.925781 -37.097656 22.035156 -44.203125 20.578125 -50.671875 C 20.703125 -46.273438 20.765625 -39.109375 20.765625 -29.171875 L 20.765625 0 L 8.140625 0 L 8.140625 -63.109375 L 28.078125 -63.109375 L 42.34375 -11.609375 L 56.609375 -63.109375 Z M 76.1875 -63.109375 "/></g></g></g></svg>